<svg width="71" height="51" viewBox="0 0 71 51" fill="none" xmlns="http://www.w3.org/2000/svg">
<path d="M6.83554 13.96C6.92519 14.8704 7.69746 15.5642 8.62754 15.6015C9.66408 15.6434 10.4205 14.8795 10.5316 14.0929C10.5661 13.8489 10.5848 13.6003 10.5848 13.3545C10.5886 11.1712 10.5867 8.98707 10.5876 6.8038C10.5876 6.64356 10.5848 6.48332 10.5951 6.32399C10.6287 5.80685 10.8752 5.52643 11.4047 5.43447C11.6979 5.38349 11.9968 5.36619 12.2937 5.33432C13.5114 5.20322 14.7338 5.12947 15.9589 5.10216C17.7827 5.06119 19.6036 5.09852 21.419 5.28334C22.1763 5.35982 22.9308 5.45086 23.6769 5.60655C29.1967 6.75827 32.9059 11.8841 32.226 17.1192C32.0131 18.7571 31.4398 20.2485 30.4144 21.5686C29.2434 23.0763 27.754 24.1871 25.9816 24.9455C25.7902 25.0274 25.5913 25.0985 25.4138 25.2023C24.8405 25.5373 24.537 26.0289 24.5977 26.6908C24.6416 27.1661 24.8246 27.5958 25.1692 27.9445C25.6305 28.4125 26.4429 28.8122 27.3833 28.3989C27.7502 28.2377 28.1182 28.0756 28.4749 27.8945C30.2865 26.9749 31.8712 25.7768 33.1328 24.2044C35.8362 20.8357 36.6159 17.0364 35.7475 12.8829C35.3441 10.9555 34.484 9.22469 33.3046 7.63686C31.451 5.14131 29.0361 3.39232 26.0302 2.42815C24.3446 1.88734 22.6012 1.65882 20.8409 1.5268C19.3506 1.41482 17.8565 1.41573 16.3623 1.41846C15.3155 1.42119 14.2715 1.4658 13.2294 1.55321C12.1434 1.64425 11.0592 1.75351 9.9769 1.87642C9.39887 1.94197 8.82177 2.02937 8.25308 2.14591C7.44439 2.31162 6.87663 2.98171 6.82247 3.78655C6.8094 3.97502 6.81126 4.16439 6.81126 4.35376C6.81126 5.83872 6.81126 7.32367 6.81126 8.80862C6.81126 10.3081 6.81126 11.8077 6.8122 13.3072C6.8122 13.5257 6.815 13.7442 6.83648 13.9618L6.83554 13.96Z" fill="#FF6D24"/>
<path d="M36.4254 44.941C36.1658 44.6405 35.8903 44.3519 35.6055 44.0751C30.9747 39.5902 26.3421 35.1071 21.7085 30.625C18.8771 27.8863 16.0467 25.1477 13.2117 22.4127C12.7541 21.9711 12.3199 21.5122 11.9715 20.9814C11.9015 20.8758 11.8128 20.782 11.7334 20.6846C11.5018 20.7602 11.3767 20.8904 11.3235 21.0889C11.1171 21.8482 10.8864 22.6002 10.7538 23.3778C10.6735 23.8457 10.8033 24.2409 11.1246 24.5832C11.246 24.7116 11.3767 24.8318 11.5056 24.9528C13.3508 26.6955 15.1979 28.4371 17.0422 30.1798C17.1701 30.3008 17.298 30.4265 17.4036 30.5649C17.5483 30.7552 17.5604 30.97 17.4558 31.1849C17.411 31.2759 17.3513 31.3606 17.2971 31.448C17.1038 31.7594 16.904 32.0671 16.7209 32.384C16.6341 32.5342 16.5743 32.7008 16.5108 32.8638C16.4193 33.0996 16.4707 33.3254 16.6014 33.5311C16.6873 33.6668 16.7854 33.797 16.8956 33.9154C17.0861 34.1202 17.285 34.3187 17.4867 34.5126C20.0631 36.9845 22.6395 39.4564 25.2168 41.9264C27.7521 44.3564 30.2874 46.7855 32.8237 49.2146C32.961 49.3457 33.0889 49.4878 33.2878 49.5852C33.4055 49.4996 33.5259 49.4177 33.6398 49.3266C34.3075 48.7885 34.9771 48.2523 35.6401 47.7078C35.8913 47.5021 36.1369 47.2872 36.3657 47.0578C36.5309 46.8921 36.6813 46.7072 36.8102 46.5124C37.0109 46.2083 37.0268 45.876 36.8494 45.5573C36.7289 45.3416 36.5888 45.1303 36.4273 44.9419L36.4254 44.941Z" fill="#FF6D24"/>
<path d="M49.1403 27.7015C49.4232 27.0259 49.7463 26.3722 50.1749 25.7704C50.2244 25.7012 50.258 25.6202 50.2907 25.5592C50.005 24.9792 49.5642 24.7052 49.0133 24.7561C48.6351 24.7907 48.325 24.9719 48.1047 25.2605C47.8376 25.6092 47.5883 25.9743 47.3679 26.3522C47.1615 26.7054 46.9953 27.0814 46.8253 27.4529C46.407 28.3697 45.9914 29.2893 45.5843 30.2107C45.2761 30.9081 44.8905 31.5636 44.4824 32.2082C44.2685 32.546 44.0033 32.8428 43.6728 33.074C43.529 33.1742 43.3702 33.2643 43.2049 33.3244C42.6895 33.5092 42.4476 33.3317 42.4336 32.79C42.4261 32.5087 42.4831 32.2401 42.5522 31.9715C42.752 31.193 43.0518 30.4483 43.3618 29.7072C43.6606 28.9934 43.966 28.2814 44.2265 27.554C44.5449 26.6654 44.1583 25.7303 43.3123 25.276C43.119 25.1722 42.9005 25.1085 42.6876 25.0457C42.5961 25.0183 42.4896 25.0411 42.386 25.0411C42.357 25.1331 42.3346 25.2014 42.315 25.2705C42.2001 25.6775 42.0741 26.0818 41.976 26.4915C41.8985 26.8147 41.7117 26.9913 41.3793 27.0578C40.9535 27.1424 40.5277 27.2107 40.0916 27.1898C39.9282 27.1816 39.7629 27.1752 39.6107 27.0587C39.5658 26.903 39.521 26.7346 39.4678 26.5689C39.3184 26.1045 39.0971 25.6793 38.7403 25.3315C38.3407 24.9419 37.8626 24.7425 37.2929 24.7498C36.7074 24.757 36.1807 24.9455 35.6849 25.2305C35.034 25.6056 34.4905 26.1009 34.0143 26.669C32.9189 27.9755 32.184 29.4568 31.7629 31.0902C31.4986 32.1144 31.3576 33.1469 31.4986 34.2039C31.577 34.7875 31.7386 35.3438 32.0579 35.8482C32.6061 36.715 33.524 36.9672 34.2795 36.8315C34.8519 36.7286 35.3562 36.4919 35.8268 36.176C36.5113 35.7162 37.0707 35.1335 37.5507 34.4761C38.7646 32.8155 39.4771 30.9718 39.6639 28.9388C39.677 28.7949 39.677 28.6474 39.7909 28.5008C39.9487 28.4753 40.1243 28.4508 40.2989 28.418C40.4604 28.3879 40.6201 28.3533 40.7798 28.316C40.946 28.2769 41.0992 28.1794 41.2822 28.1822C41.3177 28.397 41.2103 28.5473 41.1468 28.7048C40.5725 30.1415 39.9963 31.5782 39.4146 33.0112C39.2147 33.5038 39.1027 34.0127 39.0644 34.5381C39.028 35.0388 39.0933 35.5259 39.3006 35.9902C39.4771 36.3845 39.7675 36.6667 40.1934 36.7914C40.5547 36.897 40.9236 36.9225 41.2999 36.8433C41.8098 36.7368 42.2431 36.4855 42.653 36.1887C43.062 35.8919 43.416 35.5368 43.7512 35.1635C43.8455 35.0579 43.9193 34.9241 44.0696 34.8749C44.1453 34.9924 44.0687 35.0843 44.036 35.1726C43.74 35.9657 43.443 36.7577 43.1321 37.5453C42.9005 38.1307 42.597 38.6824 42.2515 39.2114C42.018 39.5683 41.7491 39.8988 41.4335 40.192C41.1916 40.4178 40.9143 40.5807 40.5865 40.66C39.7339 40.8666 38.8272 40.5334 38.3033 39.8096C38.1922 39.6557 38.1119 39.4809 38.012 39.3198C37.9774 39.2633 37.9653 39.1759 37.8448 39.1814C37.7141 39.2624 37.6328 39.4044 37.5544 39.541C36.8456 40.7683 36.826 42.0074 37.5245 43.242C37.8355 43.791 38.2837 44.2244 38.8785 44.4729C40.1131 44.9873 41.2943 44.9154 42.3804 44.0896C42.9397 43.6635 43.3889 43.1409 43.7745 42.5637C44.1994 41.9282 44.558 41.2581 44.8671 40.5616C45.3051 39.5729 45.7038 38.5677 46.0204 37.5353C46.6283 35.5569 47.2175 33.5721 47.8105 31.59C48.2036 30.2771 48.6127 28.9697 49.1431 27.7015H49.1403ZM37.9345 28.9287C37.8429 30.0668 37.5002 31.1211 36.8279 32.0662C36.5879 32.404 36.2881 32.6871 35.9678 32.9502C35.7587 33.1223 35.5093 33.2206 35.2385 33.2598C34.8613 33.3153 34.5634 33.1888 34.3561 32.8765C34.1908 32.6261 34.1179 32.3448 34.1021 32.0507C34.0825 31.7011 34.1067 31.3542 34.1796 31.01C34.3916 29.9967 34.8015 29.0708 35.4654 28.2596C35.6513 28.0329 35.8474 27.8125 36.121 27.6832C36.6943 27.9045 37.2612 28.123 37.8299 28.3424C37.9578 28.5218 37.9503 28.7275 37.9335 28.9306L37.9345 28.9287Z" fill="#FF6D24"/>
<path d="M9.93675 45.6693C9.80695 44.8499 9.65941 44.0323 9.54735 43.2111C9.40167 42.144 9.29148 41.0724 9.14954 40.0045C8.90208 38.1399 8.79002 36.267 8.74146 34.3888C8.69477 32.5533 8.78348 30.7224 8.97679 28.896C9.10098 27.7233 9.27467 26.558 9.49132 25.398C9.81909 23.6509 10.2477 21.9274 10.7529 20.2212C10.8444 19.9126 10.8986 19.5984 10.9061 19.2761C10.9434 17.7193 9.27841 16.9099 8.25588 17.2258C7.89543 17.3369 7.55552 17.4734 7.24922 17.6874C7.10448 17.7894 6.96161 17.8932 6.77484 18.027C6.65158 17.8567 6.55446 17.7293 6.46388 17.5973C6.17253 17.1739 5.88585 16.7487 5.59357 16.3263C5.27607 15.8665 4.98005 15.3985 4.77834 14.875C4.64387 14.5263 4.39454 14.2541 4.07238 14.0501C3.44298 13.6523 2.35415 14.0902 2.35602 14.9369C2.35602 15.1527 2.3775 15.3739 2.43166 15.5833C2.61375 16.2862 2.95086 16.9153 3.45419 17.4516C3.89775 17.9241 4.35159 18.3875 4.80356 18.8528C5.05008 19.1068 5.30315 19.3544 5.55061 19.6066C5.88211 19.9435 6.01192 20.3468 5.95215 20.8084C5.93908 20.9095 5.91853 21.0097 5.89425 21.108C5.21724 23.9158 4.75873 26.7601 4.4431 29.6262C4.26288 31.2623 4.14802 32.9029 4.09385 34.5472C4.01261 37.0072 4.03876 39.4664 4.1779 41.9246C4.20124 42.3316 4.22646 42.7386 4.27408 43.1437C4.41135 44.3145 4.55796 45.4845 4.70644 46.6535C4.77274 47.1743 4.86425 47.6878 5.12199 48.1612C5.48618 48.8313 6.03713 49.2601 6.79445 49.4359C7.10261 49.5078 7.41638 49.5178 7.73014 49.485C8.6266 49.3912 9.30175 48.9661 9.72197 48.1822C10.0133 47.6386 10.1104 47.0541 10.0479 46.4468C10.0208 46.1864 9.97784 45.9279 9.93675 45.6684V45.6693Z" fill="#FF6D24"/>
<path d="M64.2317 17.0601C63.7489 16.868 63.2502 16.8388 62.6731 16.9062C62.7217 17.0737 62.7553 17.1976 62.7945 17.3196C62.8973 17.641 62.9766 17.9687 62.957 18.3056C62.9271 18.8282 62.9001 19.3526 62.8328 19.8716C62.7068 20.8403 62.4649 21.7862 62.1997 22.7267C61.7356 24.3719 61.1015 25.957 60.4133 27.5221C59.9081 28.6729 59.4291 29.8328 59.0499 31.0301C58.8445 31.6802 58.484 32.2483 58.0358 32.7627C57.9013 32.9166 57.7435 33.0558 57.5773 33.1769C57.4615 33.2607 57.3168 33.3199 57.1767 33.3572C56.9685 33.4127 56.8274 33.3226 56.7742 33.1205C56.7182 32.9074 56.6883 32.6917 56.7313 32.4722C56.7901 32.1727 56.8405 31.8704 56.9134 31.5736C57.159 30.5667 57.5194 29.5961 57.9032 28.632C57.9723 28.4581 58.0293 28.2805 58.089 28.1103C57.7164 27.6714 57.1814 27.5786 56.7079 27.3746C56.6407 27.0924 56.5772 26.8238 56.5128 26.5552C56.4156 26.1546 56.2625 25.7768 56.015 25.4417C55.6686 24.971 55.2017 24.7316 54.5984 24.748C54.1343 24.7607 53.7234 24.9164 53.3424 25.1604C52.8391 25.4827 52.3956 25.8751 52.0276 26.3376C51.6989 26.751 51.3833 27.177 51.0975 27.6204C49.9051 29.4687 49.1384 31.4717 48.8489 33.6422C48.777 34.1812 48.7938 34.7174 48.9031 35.2491C48.9768 35.6079 49.1076 35.9475 49.3298 36.2497C49.5194 36.5083 49.7687 36.6822 50.0778 36.776C50.6241 36.9426 51.1358 36.8861 51.6139 36.5647C52.15 36.2042 52.5963 35.7599 52.9568 35.2346C53.2388 34.823 53.5077 34.4033 53.7851 33.9891C53.8215 33.9344 53.8476 33.8489 53.9793 33.898C53.984 33.9836 53.9942 34.0801 53.9952 34.1766C53.997 34.4534 53.9924 34.7302 53.9952 35.006C53.9998 35.3629 54.0988 35.6971 54.2763 36.0066C54.4864 36.3735 54.8104 36.5848 55.2381 36.644C55.6677 36.704 56.0701 36.6367 56.4455 36.42C56.8097 36.2097 57.1263 35.9475 57.3775 35.6142C57.6156 35.2974 57.849 34.9769 58.0872 34.6592C58.1283 34.6045 58.1647 34.529 58.2898 34.5736C58.2963 34.6728 58.3029 34.7839 58.3122 34.8941C58.3477 35.301 58.3972 35.7062 58.5868 36.0786C58.7987 36.4965 59.1284 36.7605 59.613 36.8361C60.1229 36.9153 60.5926 36.8178 61.0343 36.5702C61.4134 36.3581 61.7421 36.0868 62.0232 35.759C62.4939 35.2091 62.9001 34.6191 63.2465 33.9872C63.889 32.8128 64.3363 31.5645 64.7257 30.2944C64.7453 30.2316 64.7285 30.1588 64.7285 30.0978C64.5305 30.0095 64.3606 30.0168 64.1785 30.116C64.1038 30.2799 64.0262 30.4529 63.9459 30.6249C63.6807 31.1958 63.4006 31.7585 63.0457 32.282C62.831 32.5997 62.5807 32.8865 62.2828 33.1351C62.1315 33.2607 61.9625 33.349 61.7673 33.3836C61.5675 33.4191 61.4069 33.3244 61.3686 33.126C61.3387 32.9703 61.3322 32.8073 61.3322 32.648C61.3322 32.1773 61.4508 31.7257 61.5787 31.2768C61.9046 30.1242 62.3528 29.0153 62.8338 27.9172C63.4846 26.4323 64.1094 24.9364 64.6258 23.4005C65.0068 22.2661 65.3663 21.1262 65.5241 19.9362C65.5997 19.3672 65.5839 18.8036 65.3924 18.2537C65.1935 17.681 64.806 17.285 64.2326 17.0564L64.2317 17.0601ZM55.6172 28.0347C55.2708 28.8851 54.9421 29.7427 54.59 30.5913C54.3827 31.0902 54.1231 31.5663 53.8 32.0052C53.6441 32.2173 53.4704 32.4176 53.2901 32.6115C53.1239 32.79 52.9101 32.8901 52.658 32.8965C52.4058 32.9038 52.2172 32.7927 52.1425 32.5606C52.0855 32.3821 52.065 32.1927 52.0304 32.017C52.0883 31.7011 52.1229 31.3952 52.2013 31.102C52.5973 29.6234 53.2182 28.2487 54.2342 27.0669C54.3762 26.9021 54.5517 26.7628 54.7217 26.6226C54.7871 26.568 54.8767 26.5343 54.9617 26.5097C55.1886 26.445 55.3996 26.5133 55.4874 26.7264C55.6592 27.1452 55.804 27.5731 55.6172 28.0338V28.0347Z" fill="#FF6D24"/>
<path d="M60.9409 41.5841C60.9232 41.5704 60.925 41.5331 60.9138 41.4939C60.9465 41.4557 60.9801 41.4084 61.0222 41.3692C61.2379 41.168 61.3247 40.9158 61.3686 40.6326C61.4256 40.2685 61.4237 39.9116 61.3602 39.5492C61.2444 38.8991 60.9129 38.5796 60.2424 38.4949C60.1687 38.4858 60.0939 38.484 60.0192 38.4822C59.6616 38.474 59.3039 38.4639 58.9463 38.4594C58.8286 38.4585 58.711 38.473 58.6111 38.4794C58.4607 38.6479 58.5065 38.8299 58.5065 38.9993C58.5037 40.8739 58.5046 42.7476 58.5046 44.6223C58.5046 44.7097 58.5018 44.7971 58.5074 44.8836C58.5205 45.082 58.5746 45.1558 58.7754 45.1576C59.2965 45.1631 59.8213 45.1831 60.3386 45.1376C60.9867 45.0802 61.3107 44.7506 61.4368 44.117C61.5404 43.5989 61.5432 43.0809 61.4667 42.5564C61.4097 42.1631 61.2687 41.8308 60.9419 41.5832L60.9409 41.5841ZM59.2769 40.5753C59.275 40.344 59.2741 40.1119 59.2815 39.8806C59.289 39.653 59.2386 39.4208 59.3292 39.1823C59.6149 39.0985 59.8941 39.1313 60.1659 39.1923C60.4012 39.246 60.5534 39.4126 60.5982 39.643C60.6729 40.0299 60.6795 40.4214 60.5926 40.8075C60.5338 41.0706 60.3564 41.2335 60.0762 41.2818C59.8278 41.3237 59.5803 41.3701 59.3179 41.2618C59.261 41.0342 59.2787 40.8038 59.2769 40.5753ZM60.6262 44.0887C60.5506 44.279 60.4189 44.4192 60.2116 44.4438C59.9623 44.4729 59.7092 44.4757 59.458 44.4739C59.3628 44.4739 59.303 44.3974 59.2918 44.299C59.2899 44.2845 59.2881 44.2699 59.2881 44.2553C59.2937 43.5306 59.3002 42.8068 59.3067 42.0821C59.3067 42.0693 59.3198 42.0575 59.3488 42.0065C59.6392 41.9455 59.9156 41.9646 60.1948 42.0275C60.418 42.0775 60.5609 42.2032 60.6384 42.4117C60.7439 42.6939 60.7364 43.8101 60.6253 44.0887H60.6262Z" fill="#FF6D24"/>
<path d="M49.8444 41.5413C49.9415 41.4293 50.0059 41.3519 50.0732 41.2772C50.1945 41.1425 50.2693 40.9841 50.301 40.8102C50.386 40.3486 50.3935 39.8842 50.301 39.4235C50.2048 38.951 49.9172 38.646 49.4279 38.5404C49.2682 38.5058 49.1057 38.4739 48.9432 38.4694C48.5557 38.4576 48.1682 38.4594 47.7816 38.4621C47.6966 38.4621 47.6125 38.4885 47.549 38.4994C47.4379 38.6569 47.4659 38.8063 47.4659 38.9492C47.4641 40.852 47.465 42.7549 47.4659 44.6577C47.4659 44.7306 47.4659 44.8034 47.4715 44.8753C47.4902 45.1011 47.5425 45.1658 47.7694 45.1676C48.2457 45.1712 48.7229 45.1603 49.2 45.1521C49.2887 45.1503 49.3775 45.1312 49.4662 45.1175C49.8696 45.0547 50.1413 44.8262 50.2991 44.4684C50.3514 44.35 50.3879 44.2207 50.4103 44.0933C50.4952 43.6034 50.5083 43.1145 50.4411 42.6183C50.3841 42.1977 50.2543 41.8271 49.8481 41.5413H49.8444ZM48.2737 39.2169C48.6425 39.0794 48.9825 39.1185 49.3112 39.2779C49.4344 39.338 49.5035 39.4554 49.5381 39.5874C49.6492 40.0172 49.6492 40.4469 49.5315 40.8757C49.4858 41.0405 49.3793 41.1698 49.2215 41.2244C48.9264 41.3264 48.6211 41.3774 48.27 41.2636C48.2354 40.5598 48.2363 39.8961 48.2746 39.2169H48.2737ZM49.6697 43.7792C49.6669 43.8784 49.6268 43.9776 49.595 44.0741C49.525 44.2863 49.3709 44.4128 49.1487 44.4565C48.8835 44.5093 48.6173 44.5021 48.3325 44.4702C48.2307 44.0432 48.2139 42.6985 48.2942 42.0566C48.3764 42.0311 48.4689 41.9828 48.565 41.9774C48.7126 41.9692 48.8639 41.9756 49.0086 42.001C49.455 42.0803 49.6324 42.2496 49.6679 42.693C49.6968 43.0535 49.6781 43.4186 49.6679 43.781L49.6697 43.7792Z" fill="#FF6D24"/>
<path d="M57.0936 41.5941C57.4793 41.2782 57.61 40.9003 57.6156 40.4752C57.6193 40.2139 57.6249 39.9507 57.5951 39.6922C57.5073 38.9347 57.1375 38.5778 56.368 38.4813C56.2942 38.4722 56.2195 38.4658 56.1448 38.4649C55.7414 38.4621 55.338 38.4594 54.9355 38.4631C54.8506 38.4631 54.7665 38.4922 54.6675 38.5113C54.6535 38.6151 54.6358 38.6989 54.633 38.7826C54.5826 40.4069 54.6115 44.6924 54.6759 45.0775C54.9085 45.2141 55.1428 45.205 55.3996 45.0639C55.4053 44.8918 55.4165 44.7179 55.4165 44.544C55.4183 43.8885 55.4146 43.2338 55.4202 42.5783C55.4211 42.4081 55.3894 42.2278 55.5117 42.0675C55.7648 42.0675 56.0197 42.0439 56.2681 42.0739C56.594 42.1131 56.735 42.2669 56.7845 42.5856C56.8181 42.8005 56.8396 43.019 56.8452 43.2366C56.8573 43.7309 56.8545 44.2262 56.8629 44.7215C56.8648 44.8481 56.8891 44.9737 56.9022 45.1003C57.1608 45.1895 57.3849 45.2186 57.5932 45.0857C57.6063 45.0356 57.6203 45.0083 57.6203 44.9801C57.61 44.2526 57.5894 43.5243 57.5913 42.7968C57.5922 42.3434 57.5203 41.9264 57.0936 41.5914V41.5941ZM56.7724 40.9222C56.7033 41.1698 56.5184 41.3091 56.2625 41.3547C56.1458 41.3756 56.0262 41.3902 55.9076 41.3911C55.775 41.3929 55.6424 41.3774 55.4529 41.3665C55.3996 40.6254 55.4099 39.9344 55.4454 39.2306C55.7704 39.1013 56.0776 39.1213 56.3792 39.2014C56.5735 39.2533 56.7163 39.3899 56.7724 39.5875C56.8975 40.0318 56.8966 40.4788 56.7724 40.9222Z" fill="#FF6D24"/>
<path d="M68.6113 43.1519C68.6085 42.9479 68.6113 42.744 68.601 42.541C68.5823 42.2105 68.4796 41.9146 68.2069 41.6933C68.1668 41.6606 68.1425 41.6105 68.1024 41.5577C68.475 41.3346 68.5926 40.9987 68.6178 40.6199C68.6309 40.4314 68.6533 40.2412 68.6393 40.0536C68.6216 39.8087 68.5926 39.5611 68.5329 39.3225C68.4311 38.9219 68.15 38.6761 67.7475 38.5614C67.6336 38.5286 67.5159 38.4967 67.3983 38.4849C66.8482 38.4312 66.2973 38.4357 65.6987 38.4813C65.68 38.6215 65.6548 38.7198 65.6548 38.8181C65.653 40.8248 65.653 42.8323 65.6548 44.839C65.6548 44.9227 65.68 45.0065 65.695 45.1057C65.807 45.1294 65.906 45.164 66.0059 45.1685C66.3515 45.1831 66.4308 45.1075 66.4383 44.777C66.4402 44.7042 66.4364 44.6314 66.4364 44.5585C66.4364 43.8602 66.4364 43.1628 66.4383 42.4645C66.4383 42.3361 66.4159 42.2005 66.5606 42.063C66.6876 42.0584 66.8492 42.0439 67.0098 42.0484C67.6102 42.0666 67.7858 42.215 67.8222 42.795C67.8586 43.3895 67.8596 43.9868 67.8782 44.5822C67.8838 44.7534 67.8633 44.9291 67.9315 45.1012C68.1668 45.1949 68.389 45.2168 68.6318 45.0702C68.6318 44.9227 68.6337 44.778 68.6318 44.6341C68.6253 44.1397 68.6188 43.6454 68.6113 43.151V43.1519ZM67.7998 40.8894C67.7298 41.1589 67.5458 41.3073 67.2722 41.3546C67.0219 41.3974 66.7707 41.4193 66.4607 41.3392C66.442 40.6272 66.4551 39.9353 66.4514 39.2488C66.6176 39.1131 66.8016 39.1177 66.9734 39.1368C67.1629 39.1577 67.3534 39.2014 67.5318 39.267C67.6943 39.3271 67.7615 39.4809 67.8045 39.6421C67.9156 40.0591 67.9081 40.4733 67.7998 40.8894Z" fill="#FF6D24"/>
<path d="M53.4442 41.5185C53.2836 40.6463 53.1193 39.775 52.954 38.9037C52.9269 38.7626 52.9288 38.6106 52.8008 38.4867C52.5636 38.4567 52.3143 38.4476 52.0454 38.4967C52.0071 38.657 51.9632 38.8099 51.9343 38.9647C51.585 40.8521 51.2367 42.7395 50.8912 44.6268C50.8632 44.7816 50.8202 44.94 50.8781 45.1039C51.0948 45.2113 51.3049 45.2022 51.5178 45.0893C51.684 44.7151 51.5943 44.2772 51.8147 43.9185C51.8932 43.9112 51.9511 43.9012 52.0099 43.9003C52.234 43.8967 52.4572 43.8894 52.6813 43.8957C53.1062 43.9076 53.166 43.9458 53.207 44.3683C53.222 44.5267 53.2519 44.6851 53.2874 44.8408C53.3098 44.9373 53.3546 45.0293 53.3891 45.1239C53.6357 45.1786 53.8654 45.2323 54.0746 45.0493C54.0615 44.951 54.054 44.8645 54.0381 44.7798C53.8411 43.6927 53.6441 42.6056 53.4433 41.5185H53.4442ZM52.9829 43.1974C52.6878 43.314 52.4759 43.324 51.9128 43.2439C51.881 42.7103 52.0426 42.1959 52.121 41.6742C52.2004 41.1462 52.2732 40.6154 52.4198 40.0272C52.4815 40.1693 52.5328 40.243 52.5468 40.3231C52.7 41.2381 52.8485 42.155 52.9951 43.0709C53.0016 43.1118 52.9876 43.1565 52.9829 43.1974Z" fill="#FF6D24"/>
<path d="M64.3213 44.4647C64.0524 44.4611 63.7844 44.4711 63.5155 44.4647C63.3847 44.462 63.2446 44.4757 63.1204 44.3637C63.1092 44.3072 63.084 44.2371 63.084 44.167C63.0812 43.4833 63.0803 42.7995 63.0859 42.1158C63.0859 42.0347 63.127 41.9537 63.1494 41.8745C63.5836 41.7352 64.0319 41.9018 64.4343 41.7607C64.5044 41.4466 64.5072 41.4466 64.4194 41.1844C64.0122 41.0332 63.5621 41.2135 63.1541 41.0669C63.0541 40.7173 63.0551 39.5774 63.1606 39.1768C63.7293 39.0557 64.3353 39.2233 64.9031 39.0821C64.9467 38.877 64.9395 38.6785 64.8816 38.4867C64.6155 38.4239 64.3325 38.4603 64.0533 38.4576C63.7695 38.4548 63.4856 38.4476 63.2026 38.4603C62.9271 38.4721 62.6405 38.3975 62.3669 38.5322C62.3566 38.6133 62.3388 38.6843 62.3388 38.7553C62.336 40.792 62.3342 42.8277 62.336 44.8644C62.336 44.9464 62.3641 45.0283 62.3818 45.1266C62.5172 45.1439 62.633 45.1703 62.7497 45.1713C63.3464 45.1767 63.9441 45.1767 64.5408 45.1767C64.6743 45.1767 64.8088 45.1722 64.9321 45.0656C64.9741 44.8918 64.9881 44.7106 64.9031 44.5194C64.7079 44.4593 64.5137 44.4684 64.3223 44.4657L64.3213 44.4647Z" fill="#FF6D24"/>
</svg>
